<svg width="98" height="19" viewBox="0 0 98 19" fill="none" xmlns="http://www.w3.org/2000/svg">
<g clip-path="url(#clip0_912_126)">
<path d="M93 11.5C93 11.2348 92.8946 10.9804 92.7071 10.7929C92.5196 10.6054 92.2652 10.5 92 10.5C91.7348 10.5 91.4804 10.6054 91.2929 10.7929C91.1054 10.9804 91 11.2348 91 11.5C91 11.7652 91.1054 12.0196 91.2929 12.2071C91.4804 12.3946 91.7348 12.5 92 12.5C92.2652 12.5 92.5196 12.3946 92.7071 12.2071C92.8946 12.0196 93 11.7652 93 11.5V11.5Z" stroke="#FF9C07" stroke-linecap="round" stroke-linejoin="round"/>
<path d="M93 6.5C93 6.23478 92.8946 5.98043 92.7071 5.79289C92.5196 5.60536 92.2652 5.5 92 5.5C91.7348 5.5 91.4804 5.60536 91.2929 5.79289C91.1054 5.98043 91 6.23478 91 6.5C91 6.76522 91.1054 7.01957 91.2929 7.20711C91.4804 7.39464 91.7348 7.5 92 7.5C92.2652 7.5 92.5196 7.39464 92.7071 7.20711C92.8946 7.01957 93 6.76522 93 6.5V6.5Z" stroke="#FF9C07" stroke-linecap="round" stroke-linejoin="round"/>
<path d="M90.5 9C90.5 8.73478 90.3946 8.48043 90.2071 8.29289C90.0196 8.10536 89.7652 8 89.5 8C89.2348 8 88.9804 8.10536 88.7929 8.29289C88.6054 8.48043 88.5 8.73478 88.5 9C88.5 9.26522 88.6054 9.51957 88.7929 9.70711C88.9804 9.89464 89.2348 10 89.5 10C89.7652 10 90.0196 9.89464 90.2071 9.70711C90.3946 9.51957 90.5 9.26522 90.5 9Z" stroke="#FF9C07" stroke-linecap="round" stroke-linejoin="round"/>
<path d="M95.5 9C95.5 8.73478 95.3946 8.48043 95.2071 8.29289C95.0196 8.10536 94.7652 8 94.5 8C94.2348 8 93.9804 8.10536 93.7929 8.29289C93.6054 8.48043 93.5 8.73478 93.5 9C93.5 9.26522 93.6054 9.51957 93.7929 9.70711C93.9804 9.89464 94.2348 10 94.5 10C94.7652 10 95.0196 9.89464 95.2071 9.70711C95.3946 9.51957 95.5 9.26522 95.5 9Z" stroke="#FF9C07" stroke-linecap="round" stroke-linejoin="round"/>
<path d="M92 14L97 14M92 14C94.7615 14 97 11.7615 97 9C97 6.2385 94.7615 4 92 4C89.2385 4 87 6.2385 87 9C87 11.7615 89.2385 14 92 14Z" stroke="#FF9C07" stroke-linecap="round" stroke-linejoin="round"/>
</g>
<path d="M11.2539 15V6.904L7.90988 13.048H6.85388L3.49388 6.904V15H1.70188V3.64H3.62188L7.38188 10.584L11.1419 3.64H13.0619V15H11.2539ZM20.3438 15.08C19.5224 15.08 18.7811 14.92 18.1198 14.6C17.4584 14.28 16.8878 13.848 16.4078 13.304C15.9278 12.7493 15.5544 12.1307 15.2878 11.448C15.0318 10.7547 14.9038 10.0453 14.9038 9.32C14.9038 8.56267 15.0424 7.84267 15.3198 7.16C15.5971 6.46667 15.9811 5.85333 16.4718 5.32C16.9624 4.776 17.5384 4.34933 18.1998 4.04C18.8718 3.72 19.5971 3.56 20.3758 3.56C21.1864 3.56 21.9224 3.72533 22.5838 4.056C23.2558 4.38667 23.8264 4.82933 24.2958 5.384C24.7758 5.93867 25.1438 6.55733 25.3998 7.24C25.6664 7.92267 25.7998 8.62133 25.7998 9.336C25.7998 10.0933 25.6611 10.8187 25.3838 11.512C25.1171 12.1947 24.7384 12.808 24.2478 13.352C23.7571 13.8853 23.1758 14.3067 22.5038 14.616C21.8424 14.9253 21.1224 15.08 20.3438 15.08ZM16.7278 9.32C16.7278 9.85333 16.8131 10.3707 16.9838 10.872C17.1544 11.3733 17.3944 11.8213 17.7038 12.216C18.0238 12.6 18.4078 12.904 18.8558 13.128C19.3038 13.352 19.8051 13.464 20.3598 13.464C20.9358 13.464 21.4478 13.3467 21.8958 13.112C22.3438 12.8773 22.7171 12.5627 23.0158 12.168C23.3251 11.7627 23.5598 11.3147 23.7198 10.824C23.8798 10.3227 23.9598 9.82133 23.9598 9.32C23.9598 8.78667 23.8744 8.27467 23.7038 7.784C23.5438 7.28267 23.3038 6.84 22.9838 6.456C22.6638 6.06133 22.2798 5.752 21.8318 5.528C21.3944 5.304 20.9038 5.192 20.3598 5.192C19.7838 5.192 19.2718 5.30933 18.8238 5.544C18.3758 5.77867 17.9971 6.09333 17.6878 6.488C17.3784 6.88267 17.1384 7.32533 16.9678 7.816C16.8078 8.30667 16.7278 8.808 16.7278 9.32ZM27.9375 3.64L31.3615 12.808L34.7695 3.64H36.6735L32.2095 15H30.5135L26.0335 3.64H27.9375ZM38.0613 15V3.64H39.8533V15H38.0613ZM50.2126 13.416V15H42.4206V3.64H50.0686V5.224H44.2126V8.456H49.2846V9.944H44.2126V13.416H50.2126ZM60.4464 14.568C60.297 14.6427 60.1104 14.7227 59.8864 14.808C59.6624 14.8933 59.4064 14.968 59.1184 15.032C58.841 15.096 58.553 15.128 58.2544 15.128C57.8917 15.128 57.5557 15.064 57.2464 14.936C56.937 14.808 56.6864 14.6053 56.4944 14.328C56.313 14.04 56.2224 13.672 56.2224 13.224V7.992H55.1184V6.632H56.2224V3.88H57.9824V6.632H59.8064V7.992H57.9824V12.664C58.0037 12.952 58.0944 13.1653 58.2544 13.304C58.425 13.4427 58.633 13.512 58.8784 13.512C59.1237 13.512 59.3584 13.4693 59.5824 13.384C59.8064 13.2987 59.9717 13.2293 60.0784 13.176L60.4464 14.568ZM65.316 15.16C64.6547 15.16 64.0627 15.048 63.54 14.824C63.0173 14.5893 62.564 14.2693 62.18 13.864C61.8067 13.4587 61.5187 13 61.316 12.488C61.1133 11.9653 61.012 11.4107 61.012 10.824C61.012 10.2373 61.1133 9.68267 61.316 9.16C61.5187 8.63733 61.8067 8.17867 62.18 7.784C62.564 7.37867 63.0173 7.064 63.54 6.84C64.0733 6.60533 64.6653 6.488 65.316 6.488C65.9667 6.488 66.5533 6.60533 67.076 6.84C67.6093 7.064 68.0627 7.37867 68.436 7.784C68.82 8.17867 69.1133 8.63733 69.316 9.16C69.5187 9.68267 69.62 10.2373 69.62 10.824C69.62 11.4107 69.5187 11.9653 69.316 12.488C69.1133 13 68.82 13.4587 68.436 13.864C68.0627 14.2693 67.6093 14.5893 67.076 14.824C66.5533 15.048 65.9667 15.16 65.316 15.16ZM62.82 10.84C62.82 11.3733 62.932 11.8533 63.156 12.28C63.38 12.7067 63.6787 13.0427 64.052 13.288C64.4253 13.5333 64.8467 13.656 65.316 13.656C65.7747 13.656 66.1907 13.5333 66.564 13.288C66.948 13.032 67.252 12.6907 67.476 12.264C67.7 11.8267 67.812 11.3467 67.812 10.824C67.812 10.2907 67.7 9.81067 67.476 9.384C67.252 8.95733 66.948 8.62133 66.564 8.376C66.1907 8.12 65.7747 7.992 65.316 7.992C64.8467 7.992 64.4253 8.12 64.052 8.376C63.6787 8.632 63.38 8.97333 63.156 9.4C62.932 9.816 62.82 10.296 62.82 10.84ZM79.9981 15.08C79.2515 15.08 78.5528 14.9253 77.9021 14.616C77.2515 14.3067 76.6808 13.88 76.1901 13.336C75.7101 12.792 75.3315 12.1733 75.0541 11.48C74.7875 10.7867 74.6541 10.0507 74.6541 9.272C74.6541 8.49333 74.7875 7.76267 75.0541 7.08C75.3315 6.39733 75.7101 5.78933 76.1901 5.256C76.6808 4.72267 77.2515 4.30667 77.9021 4.008C78.5635 3.70933 79.2835 3.56 80.0621 3.56C81.1395 3.56 82.0461 3.78933 82.7821 4.248C83.5288 4.696 84.0888 5.29333 84.4621 6.04L83.0861 7.032C82.7875 6.41333 82.3608 5.94933 81.8061 5.64C81.2621 5.33067 80.6648 5.176 80.0141 5.176C79.4808 5.176 78.9955 5.288 78.5581 5.512C78.1208 5.736 77.7421 6.04533 77.4221 6.44C77.1128 6.824 76.8781 7.26667 76.7181 7.768C76.5581 8.25867 76.4781 8.776 76.4781 9.32C76.4781 9.896 76.5688 10.4347 76.7501 10.936C76.9315 11.4373 77.1875 11.88 77.5181 12.264C77.8488 12.6373 78.2381 12.9307 78.6861 13.144C79.1341 13.3573 79.6195 13.464 80.1421 13.464C80.7608 13.464 81.3475 13.3093 81.9021 13C82.4675 12.68 82.9955 12.2053 83.4861 11.576V13.4C82.4941 14.52 81.3315 15.08 79.9981 15.08ZM83.3101 10.584H80.9261V9.256H84.8141V15H83.3101V10.584Z" fill="#FF9C07"/>
<defs>
<clipPath id="clip0_912_126">
<rect width="12" height="12" fill="white" transform="translate(86 15) rotate(-90)"/>
</clipPath>
</defs>
</svg>
