<svg width="12" height="20" viewBox="0 0 12 20" fill="none" xmlns="http://www.w3.org/2000/svg">
<path d="M9.48366 19.6167C9.73169 19.8647 10.0474 20 10.4194 20C11.1635 20 11.761 19.4138 11.761 18.6697C11.761 18.2976 11.6032 17.9594 11.3439 17.7001L3.45209 9.98873L11.3439 2.29989C11.6032 2.04059 11.761 1.69109 11.761 1.33033C11.761 0.586246 11.1635 0 10.4194 0C10.0474 0 9.73169 0.135287 9.48366 0.383315L0.71252 8.95152C0.396849 9.24465 0.250288 9.60541 0.239014 10C0.239014 10.3946 0.396849 10.7328 0.71252 11.0372L9.48366 19.6167Z" fill="#FF9C07"/>
</svg>
