<svg xmlns="http://www.w3.org/2000/svg" xmlns:xlink="http://www.w3.org/1999/xlink" width="800" height="450"><path opacity=".51" d="M-6-3h812v456H-6z"/><defs><path id="a" d="M-6-3h812v456H-6z"/></defs><clipPath id="b"><use xlink:href="#a" overflow="visible"/></clipPath><path clip-path="url(#b)" fill="#B1B1B0" d="M576.486 583.895L682.354 308.79l-14.227-5.476-2.913 7.57a3.723 3.723 0 01-4.812 2.134l-20.062-7.72a3.72 3.72 0 01-2.136-4.809l2.913-7.569-17.479-6.728-9.822 25.528c-2.806 7.287-11.298 10.801-18.97 7.849L424.95 254.19c-7.667-2.951-11.617-11.254-8.812-18.541l9.823-25.527-17.471-6.722-2.913 7.571a3.723 3.723 0 01-4.812 2.134l-20.061-7.72a3.72 3.72 0 01-2.136-4.808l2.914-7.57-12.467-4.797-105.866 275.104 12.466 4.797 2.703-7.022a3.72 3.72 0 014.807-2.137l20.062 7.721a3.723 3.723 0 012.14 4.809l-2.703 7.024 17.473 6.725 13.721-35.655c2.804-7.286 11.301-10.8 18.968-7.849l169.895 65.379c7.673 2.952 11.618 11.253 8.813 18.542l-13.721 35.653 17.478 6.726 2.703-7.023a3.721 3.721 0 014.808-2.137l20.062 7.722a3.722 3.722 0 012.14 4.809l-2.702 7.024 14.224 5.473zM314.656 447.24a3.73 3.73 0 01-4.814 2.14l-20.06-7.722a3.724 3.724 0 01-2.135-4.812l5.827-15.141a3.72 3.72 0 014.808-2.137l20.06 7.721a3.723 3.723 0 012.14 4.81l-5.826 15.141zm15.151-39.374a3.724 3.724 0 01-4.811 2.136l-20.061-7.721a3.72 3.72 0 01-2.136-4.808l5.826-15.142a3.722 3.722 0 014.81-2.141l20.061 7.72a3.724 3.724 0 012.138 4.813l-5.827 15.143zm15.154-39.381a3.722 3.722 0 01-4.811 2.134l-20.061-7.72a3.718 3.718 0 01-2.135-4.808l5.826-15.143a3.719 3.719 0 014.807-2.135l20.062 7.72a3.723 3.723 0 012.139 4.81l-5.827 15.142zm15.155-39.378a3.723 3.723 0 01-4.812 2.134l-20.06-7.719a3.721 3.721 0 01-2.136-4.809l5.826-15.142a3.718 3.718 0 014.808-2.135l20.061 7.719a3.724 3.724 0 012.139 4.811l-5.826 15.141zm15.155-39.38a3.72 3.72 0 01-4.812 2.133l-20.061-7.719a3.72 3.72 0 01-2.136-4.808l5.827-15.142a3.718 3.718 0 014.808-2.135l20.061 7.719a3.725 3.725 0 012.139 4.811l-5.826 15.141zm15.154-39.381a3.722 3.722 0 01-4.812 2.137l-20.062-7.719a3.724 3.724 0 01-2.134-4.812l5.827-15.14a3.719 3.719 0 014.807-2.135l20.062 7.721a3.72 3.72 0 012.139 4.808l-5.827 15.14zM552.13 472.024c-2.805 7.287-11.298 10.802-18.969 7.851l-169.896-65.381c-7.668-2.95-11.617-11.253-8.813-18.539l41.055-106.688c2.804-7.287 11.301-10.799 18.968-7.849l169.896 65.38c7.672 2.952 11.618 11.252 8.812 18.54L552.13 472.024zm76.75-147.299a3.72 3.72 0 014.808-2.136l20.062 7.721a3.723 3.723 0 012.141 4.809l-5.827 15.142a3.726 3.726 0 01-4.812 2.139l-20.061-7.721a3.723 3.723 0 01-2.135-4.812l5.824-15.142zm-15.155 39.38a3.721 3.721 0 014.809-2.136l20.062 7.72a3.726 3.726 0 012.141 4.811l-5.826 15.141a3.724 3.724 0 01-4.812 2.134l-20.061-7.72a3.72 3.72 0 01-2.136-4.808l5.823-15.142zm-15.155 39.382a3.719 3.719 0 014.808-2.136l20.062 7.72a3.725 3.725 0 012.14 4.811l-5.826 15.142a3.723 3.723 0 01-4.812 2.133l-20.062-7.72a3.72 3.72 0 01-2.136-4.808l5.826-15.142zm-15.153 39.377a3.72 3.72 0 014.808-2.136l20.062 7.721a3.723 3.723 0 012.14 4.81l-5.826 15.141a3.722 3.722 0 01-4.812 2.135l-20.062-7.72a3.72 3.72 0 01-2.136-4.808l5.826-15.143zm-15.155 39.383a3.72 3.72 0 014.81-2.141l20.062 7.72a3.732 3.732 0 012.14 4.813l-5.827 15.141a3.726 3.726 0 01-4.812 2.136l-20.062-7.722a3.721 3.721 0 01-2.137-4.808l5.826-15.139zm1.217 67.046l-20.062-7.721a3.723 3.723 0 01-2.134-4.812l5.826-15.141a3.72 3.72 0 014.808-2.137l20.06 7.725a3.725 3.725 0 012.142 4.81l-5.826 15.141a3.728 3.728 0 01-4.814 2.135"/><g><defs><path id="c" d="M-6-3h812v456H-6z"/></defs><clipPath id="d"><use xlink:href="#c" overflow="visible"/></clipPath><path clip-path="url(#d)" fill="#B1B1B0" d="M712.218 231.184L818.085-43.922l-14.227-5.475-2.913 7.571a3.724 3.724 0 01-4.812 2.134l-20.061-7.72a3.718 3.718 0 01-2.135-4.808l2.911-7.57-17.478-6.726-9.823 25.528c-2.805 7.287-11.297 10.8-18.969 7.848L560.686-98.52c-7.668-2.951-11.617-11.254-8.812-18.541l9.823-25.527-17.475-6.724-2.913 7.571a3.721 3.721 0 01-4.812 2.133l-20.062-7.719a3.722 3.722 0 01-2.136-4.808l2.914-7.57-12.467-4.798-105.865 275.106 12.466 4.797 2.703-7.023a3.72 3.72 0 014.809-2.136l20.062 7.72a3.724 3.724 0 012.141 4.808l-2.702 7.025 17.473 6.724 13.721-35.655c2.806-7.287 11.303-10.8 18.969-7.848l169.896 65.378c7.672 2.953 11.618 11.253 8.812 18.542l-13.721 35.654 17.479 6.725 2.704-7.024a3.718 3.718 0 014.807-2.136l20.061 7.721a3.723 3.723 0 012.141 4.809L698 225.708l14.218 5.476zM450.387 94.529a3.727 3.727 0 01-4.812 2.139l-20.062-7.721a3.723 3.723 0 01-2.135-4.811l5.827-15.141a3.72 3.72 0 014.808-2.136l20.062 7.72a3.724 3.724 0 012.14 4.81l-5.828 15.14zm15.151-39.374a3.723 3.723 0 01-4.812 2.135l-20.062-7.72a3.718 3.718 0 01-2.136-4.807l5.826-15.142a3.72 3.72 0 014.81-2.14l20.062 7.72a3.726 3.726 0 012.138 4.814l-5.826 15.14zm15.155-39.382a3.724 3.724 0 01-4.812 2.134l-20.061-7.72a3.718 3.718 0 01-2.136-4.807l5.825-15.142a3.721 3.721 0 014.809-2.136l20.062 7.721a3.723 3.723 0 012.14 4.809l-5.827 15.141zm15.154-39.377a3.722 3.722 0 01-4.812 2.134l-20.062-7.72a3.72 3.72 0 01-2.136-4.807l5.826-15.141a3.718 3.718 0 014.808-2.135l20.062 7.719a3.724 3.724 0 012.139 4.81l-5.825 15.14zm15.155-39.381a3.722 3.722 0 01-4.812 2.133l-20.062-7.719a3.72 3.72 0 01-2.136-4.808l5.827-15.141a3.718 3.718 0 014.808-2.135l20.062 7.719a3.724 3.724 0 012.139 4.81l-5.826 15.141zm15.154-39.382a3.724 3.724 0 01-4.812 2.138l-20.062-7.719a3.724 3.724 0 01-2.134-4.812l5.825-15.14a3.721 3.721 0 014.809-2.136l20.062 7.721a3.724 3.724 0 012.141 4.808l-5.829 15.14zm161.705 221.679c-2.806 7.288-11.297 10.802-18.97 7.85l-169.896-65.38c-7.668-2.951-11.617-11.253-8.813-18.54l41.057-106.686c2.804-7.288 11.301-10.8 18.968-7.849l169.896 65.38c7.671 2.952 11.616 11.252 8.812 18.54l-41.054 106.685zm76.75-147.299a3.72 3.72 0 014.808-2.136l20.062 7.72a3.723 3.723 0 012.14 4.809l-5.827 15.141a3.725 3.725 0 01-4.812 2.138l-20.062-7.72a3.723 3.723 0 01-2.134-4.812l5.825-15.14zm-15.155 39.381a3.72 3.72 0 014.808-2.135l20.062 7.719a3.724 3.724 0 012.14 4.81l-5.826 15.141a3.722 3.722 0 01-4.812 2.133l-20.062-7.719a3.72 3.72 0 01-2.136-4.808l5.826-15.141zm-15.154 39.382a3.719 3.719 0 014.809-2.135l20.061 7.719a3.725 3.725 0 012.141 4.81l-5.826 15.14a3.723 3.723 0 01-4.812 2.134l-20.062-7.719a3.721 3.721 0 01-2.137-4.808l5.826-15.141zm-15.154 39.377a3.717 3.717 0 014.808-2.135l20.061 7.719a3.723 3.723 0 012.141 4.81l-5.826 15.14a3.723 3.723 0 01-4.812 2.135l-20.062-7.72a3.72 3.72 0 01-2.136-4.808l5.826-15.141zm-15.155 39.382a3.72 3.72 0 014.809-2.14l20.062 7.72a3.732 3.732 0 012.139 4.814l-5.827 15.14a3.724 3.724 0 01-4.812 2.135l-20.062-7.721a3.719 3.719 0 01-2.136-4.807l5.827-15.141zm1.217 67.046l-20.062-7.72a3.724 3.724 0 01-2.135-4.811l5.826-15.141a3.721 3.721 0 014.809-2.136l20.06 7.724a3.725 3.725 0 012.141 4.81l-5.825 15.14a3.726 3.726 0 01-4.814 2.134"/></g><g><defs><path id="e" transform="rotate(21.05 669.416 259.5)" d="M632.662 217.324h73.589v84.394h-73.589z"/></defs><clipPath id="f"><use xlink:href="#e" overflow="visible"/></clipPath><path clip-path="url(#f)" fill="#B1B1B0" d="M636.884 427.23L742.75 152.125l-14.227-5.475-2.913 7.571a3.723 3.723 0 01-4.812 2.134l-20.062-7.72a3.72 3.72 0 01-2.136-4.808l2.912-7.57-17.477-6.726-9.824 25.528c-2.804 7.287-11.296 10.8-18.968 7.848L485.352 97.529c-7.668-2.951-11.618-11.254-8.813-18.541l9.823-25.527-17.475-6.724-2.912 7.571a3.723 3.723 0 01-4.812 2.134l-20.061-7.72a3.721 3.721 0 01-2.137-4.808l2.913-7.57-12.467-4.798L323.546 306.65l12.467 4.797 2.703-7.022a3.718 3.718 0 014.807-2.136l20.061 7.72a3.723 3.723 0 012.14 4.809l-2.703 7.024 17.473 6.725 13.721-35.655c2.805-7.286 11.3-10.8 18.969-7.849l169.896 65.379c7.672 2.952 11.617 11.253 8.812 18.542l-13.722 35.653 17.479 6.726 2.703-7.023a3.721 3.721 0 014.808-2.137l20.062 7.722a3.723 3.723 0 012.141 4.81l-2.703 7.023 14.224 5.472zM375.052 290.576a3.728 3.728 0 01-4.812 2.14l-20.061-7.722a3.722 3.722 0 01-2.134-4.811l5.826-15.142a3.72 3.72 0 014.808-2.137l20.061 7.721a3.724 3.724 0 012.14 4.81l-5.828 15.141zm15.152-39.374a3.723 3.723 0 01-4.811 2.136l-20.062-7.721a3.719 3.719 0 01-2.136-4.807l5.827-15.143a3.72 3.72 0 014.809-2.14l20.062 7.72a3.723 3.723 0 012.137 4.812l-5.826 15.143zm15.154-39.382a3.723 3.723 0 01-4.812 2.135l-20.061-7.72a3.717 3.717 0 01-2.135-4.807l5.826-15.142a3.72 3.72 0 014.807-2.136l20.062 7.721a3.724 3.724 0 012.141 4.809l-5.828 15.14zm15.154-39.377a3.72 3.72 0 01-4.811 2.134l-20.061-7.719a3.72 3.72 0 01-2.136-4.808l5.826-15.141a3.718 3.718 0 014.808-2.135l20.062 7.719a3.724 3.724 0 012.14 4.81l-5.828 15.14zm15.155-39.381a3.722 3.722 0 01-4.812 2.133l-20.062-7.719a3.72 3.72 0 01-2.136-4.808l5.826-15.141a3.718 3.718 0 014.808-2.135l20.062 7.719a3.723 3.723 0 012.14 4.81l-5.826 15.141zm15.155-39.381a3.726 3.726 0 01-4.813 2.138L425.948 88.1a3.727 3.727 0 01-2.136-4.813l5.827-15.14a3.721 3.721 0 014.809-2.136l20.061 7.721a3.722 3.722 0 012.141 4.808l-5.828 15.141zM612.526 315.36c-2.805 7.288-11.298 10.802-18.969 7.851l-169.896-65.38c-7.667-2.951-11.617-11.254-8.812-18.54l41.056-106.687c2.805-7.288 11.301-10.8 18.969-7.849l169.896 65.38c7.672 2.952 11.616 11.252 8.812 18.539L612.526 315.36zm76.75-147.299a3.72 3.72 0 014.808-2.136l20.062 7.72a3.724 3.724 0 012.139 4.809l-5.826 15.141a3.727 3.727 0 01-4.812 2.139l-20.062-7.721a3.723 3.723 0 01-2.134-4.812l5.825-15.14zm-15.154 39.38a3.719 3.719 0 014.808-2.135l20.062 7.719a3.725 3.725 0 012.14 4.811l-5.826 15.141a3.72 3.72 0 01-4.812 2.133l-20.062-7.719a3.72 3.72 0 01-2.136-4.809l5.826-15.141zm-15.155 39.382a3.72 3.72 0 014.809-2.136l20.062 7.72a3.728 3.728 0 012.141 4.811l-5.827 15.142a3.724 3.724 0 01-4.812 2.133l-20.062-7.719a3.723 3.723 0 01-2.136-4.809l5.825-15.142zM643.812 286.2a3.72 3.72 0 014.809-2.136l20.061 7.72a3.728 3.728 0 012.142 4.812l-5.827 15.14a3.723 3.723 0 01-4.812 2.135l-20.062-7.72a3.721 3.721 0 01-2.136-4.809l5.825-15.142zm-15.154 39.383a3.722 3.722 0 014.81-2.141l20.062 7.721a3.728 3.728 0 012.139 4.812l-5.826 15.141a3.725 3.725 0 01-4.812 2.136l-20.062-7.722a3.719 3.719 0 01-2.136-4.808l5.825-15.139zm1.217 67.046l-20.061-7.721a3.725 3.725 0 01-2.136-4.812l5.827-15.142a3.722 3.722 0 014.809-2.136l20.06 7.725a3.723 3.723 0 012.14 4.81l-5.825 15.141a3.726 3.726 0 01-4.814 2.135"/></g><g><defs><path id="g" transform="rotate(21.045 414.11 161.306)" d="M381.679 119.113h64.872v84.39h-64.872z"/></defs><clipPath id="h"><use xlink:href="#g" overflow="visible"/></clipPath><path clip-path="url(#h)" fill="#B1B1B0" d="M336.057 311.466l2.703-7.024a3.72 3.72 0 014.812-2.133l20.061 7.719a3.72 3.72 0 012.136 4.809l-2.703 7.023 17.477 6.727 13.721-35.654c2.804-7.289 11.295-10.802 18.969-7.85l169.895 65.38c7.667 2.95 11.617 11.253 8.813 18.54l-13.723 35.653 17.475 6.726 2.703-7.024a3.723 3.723 0 014.812-2.134l20.062 7.72a3.722 3.722 0 012.137 4.809l-2.703 7.023 12.466 4.797 105.867-275.104-12.467-4.798-2.913 7.57a3.72 3.72 0 01-4.809 2.136l-20.062-7.72a3.72 3.72 0 01-2.138-4.809l2.911-7.57-17.474-6.724-9.823 25.527c-2.805 7.287-11.302 10.8-18.969 7.85l-169.896-65.38c-7.673-2.952-11.618-11.253-8.813-18.54l9.823-25.528-17.478-6.725-2.914 7.569a3.719 3.719 0 01-4.808 2.136l-20.061-7.72a3.726 3.726 0 01-2.141-4.809l2.913-7.57-14.227-5.474-105.86 275.1 14.226 5.476zm277.495 53.508a3.723 3.723 0 014.812-2.134l20.061 7.719a3.722 3.722 0 012.136 4.81l-5.825 15.141a3.726 3.726 0 01-4.811 2.141l-20.061-7.721a3.727 3.727 0 01-2.139-4.812l5.827-15.144zm15.151-39.374a3.724 3.724 0 014.812-2.138l20.062 7.72a3.721 3.721 0 012.135 4.812l-5.827 15.141a3.717 3.717 0 01-4.808 2.135l-20.062-7.719a3.724 3.724 0 01-2.14-4.811l5.828-15.14zm15.155-39.381a3.723 3.723 0 014.812-2.134l20.062 7.72a3.717 3.717 0 012.134 4.807l-5.826 15.143a3.719 3.719 0 01-4.807 2.136l-20.062-7.72a3.725 3.725 0 01-2.139-4.811l5.826-15.141zm15.154-39.378a3.723 3.723 0 014.812-2.134l20.062 7.72a3.723 3.723 0 012.138 4.808l-5.828 15.142a3.72 3.72 0 01-4.809 2.136l-20.061-7.72a3.723 3.723 0 01-2.14-4.81l5.826-15.142zm15.155-39.383a3.723 3.723 0 014.812-2.134l20.062 7.72a3.718 3.718 0 012.136 4.807l-5.826 15.143a3.72 3.72 0 01-4.808 2.135l-20.061-7.72a3.725 3.725 0 01-2.142-4.809l5.827-15.142zm15.154-39.38a3.723 3.723 0 014.812-2.134l20.062 7.72a3.72 3.72 0 012.136 4.808l-5.826 15.14a3.724 3.724 0 01-4.81 2.14l-20.062-7.72a3.726 3.726 0 01-2.138-4.813l5.826-15.141zm-233.368-35.455c2.805-7.287 11.297-10.801 18.969-7.849l169.896 65.38c7.667 2.95 11.616 11.253 8.812 18.54l-41.056 106.687c-2.805 7.286-11.302 10.799-18.968 7.848L423.711 257.85c-7.671-2.953-11.617-11.252-8.812-18.541l41.054-106.686zm-5.086-38.925a3.725 3.725 0 01-4.811 2.14l-20.061-7.72a3.727 3.727 0 01-2.139-4.813l5.825-15.141a3.724 3.724 0 014.812-2.134l20.061 7.72a3.72 3.72 0 012.137 4.808l-5.824 15.14zm-15.155 39.382a3.72 3.72 0 01-4.808 2.136l-20.062-7.721a3.722 3.722 0 01-2.14-4.809l5.826-15.14a3.723 3.723 0 014.812-2.135l20.062 7.72a3.72 3.72 0 012.136 4.807l-5.826 15.142zm-15.154 39.382a3.72 3.72 0 01-4.808 2.136l-20.061-7.721a3.722 3.722 0 01-2.14-4.809l5.826-15.141a3.723 3.723 0 014.812-2.134l20.062 7.72a3.718 3.718 0 012.136 4.807l-5.827 15.142zm-15.154 39.377a3.721 3.721 0 01-4.809 2.136l-20.062-7.72a3.722 3.722 0 01-2.139-4.81l5.826-15.14a3.722 3.722 0 014.811-2.134l20.062 7.72a3.72 3.72 0 012.137 4.807l-5.826 15.141zm-15.155 39.382a3.718 3.718 0 01-4.808 2.135l-20.061-7.719a3.724 3.724 0 01-2.14-4.81l5.826-15.142a3.731 3.731 0 014.814-2.139l20.061 7.721a3.719 3.719 0 012.134 4.812l-5.826 15.142zm-42.162 28.984l5.826-15.143a3.722 3.722 0 014.813-2.133l20.062 7.715a3.72 3.72 0 012.136 4.809l-5.827 15.142a3.722 3.722 0 01-4.809 2.14l-20.061-7.719a3.726 3.726 0 01-2.14-4.811"/></g></svg>